<svg xmlns="http://www.w3.org/2000/svg" viewBox="0 0 64 64" fill="none" role="img" aria-labelledby="title desc">
  <title id="title">Robin Xie favicon</title>
  <desc id="desc">Editorial monogram for Robin Xie.</desc>
  <rect width="64" height="64" rx="18" fill="#171412" />
  <path d="M17 48V16h16.4c4.4 0 7.8.9 10.1 2.8 2.4 1.8 3.5 4.4 3.5 7.8 0 2.5-.7 4.6-2.1 6.2-1.4 1.6-3.3 2.7-5.9 3.3L48 48h-7.6l-8.3-10.8h-7.7V48H17Zm7.4-16.7H32c2.3 0 4-.4 5.2-1.3 1.2-.9 1.8-2.2 1.8-4 0-1.8-.6-3.1-1.8-3.9-1.2-.9-3-1.3-5.3-1.3h-7.5v10.5Z" fill="#F6F1E7" />
  <path d="M42.7 16h4.9l-8.2 15.3L48 48h-5.2l-6.2-12.8-2.8 5.2V48H29V16h4.8v15.4L42.7 16Z" fill="#A88A54" />
</svg>
