<svg xmlns="http://www.w3.org/2000/svg" width="1600" height="900" viewBox="0 0 1600 900"><rect width="1600" height="900" fill="#f4f1e9"/><defs><marker id="a" markerWidth="8" markerHeight="8" refX="7" refY="4" orient="auto"><path d="M0,0 L8,4 L0,8" fill="none" stroke="#0b1228" stroke-width="1.5"/></marker></defs><g fill="#0b1228" font-family="Arial, sans-serif"><text x="100" y="100" font-size="23" letter-spacing="5">BINARY / BUILD</text><text x="100" y="209" font-size="76" font-family="Georgia, serif">What comes back from orbit?</text><text x="100" y="273" font-size="29">Hypothetical paths after an orbital experiment</text><rect x="100" y="365" width="360" height="200" rx="3" fill="#61d4d7"/><text x="137" y="440" font-size="30">ORBITAL EXPERIMENT</text><text x="137" y="497" font-size="26">Learn useful conditions</text><path d="M460,465 L670,465 M670,465 L670,383 L820,383 M670,465 L670,613 L820,613" fill="none" stroke="#0b1228" stroke-width="4"/><path d="M720,383 L820,383 M720,613 L820,613" stroke="#0b1228" stroke-width="4" marker-end="url(#a)"/><rect x="840" y="315" width="660" height="157" fill="#e8e4d9"/><text x="885" y="374" font-size="31">TRANSFER WORKS</text><text x="885" y="425" font-size="27">Develop the process on Earth</text><rect x="840" y="545" width="660" height="157" fill="#d8b86b"/><text x="885" y="605" font-size="31">ORBIT STILL NEEDED</text><text x="885" y="657" font-size="27">Test repeatable output and full costs</text><text x="100" y="804" font-size="25">Neither path is established by a recovered crystal alone.</text><text x="1500" y="861" font-size="21" text-anchor="end">IAmRobin.ai</text></g></svg>